<?xml version="1.0" encoding="utf-8"?>
<!-- Generator: Adobe Illustrator 28.1.0, SVG Export Plug-In . SVG Version: 6.00 Build 0)  -->
<svg version="1.1" id="Livello_1" xmlns="http://www.w3.org/2000/svg" xmlns:xlink="http://www.w3.org/1999/xlink" x="0px" y="0px"
	 viewBox="0 0 16 16" style="enable-background:new 0 0 16 16;" xml:space="preserve">
<style type="text/css">
	.st0{fill:#FFFFFF;}
</style>
<path class="st0" d="M6,2.8C6,1.8,6.8,1,7.8,1h6.5c1,0,1.8,0.8,1.8,1.8v10.5c0,1-0.8,1.8-1.8,1.8H7.8c-1,0-1.8-0.8-1.8-1.8V2.8z
	 M7.8,2.5c-0.1,0-0.2,0.1-0.2,0.2v10.5c0,0.1,0.1,0.2,0.2,0.2h6.5c0.1,0,0.2-0.1,0.2-0.2V2.8c0-0.1-0.1-0.2-0.2-0.2H7.8z M1.8,2.5
	c-0.1,0-0.2,0.1-0.2,0.2v6.5c0,0.1,0.1,0.2,0.2,0.2H4V11H1.8C0.8,11,0,10.2,0,9.2V2.8C0,1.8,0.8,1,1.8,1H4v1.5H1.8z M4,15H2v-1.5h2
	V15z"/>
<path class="st0" d="M13,10c0,1.1-0.9,2-2,2s-2-0.9-2-2s0.9-2,2-2S13,8.9,13,10z M12,5c0,0.6-0.4,1-1,1s-1-0.4-1-1s0.4-1,1-1
	S12,4.4,12,5z"/>
</svg>
