<?xml version="1.0" encoding="utf-8"?>
<!-- Generator: Adobe Illustrator 28.1.0, SVG Export Plug-In . SVG Version: 6.00 Build 0)  -->
<svg version="1.1" id="Livello_1" xmlns="http://www.w3.org/2000/svg" xmlns:xlink="http://www.w3.org/1999/xlink" x="0px" y="0px"
	 viewBox="0 0 340 340" style="enable-background:new 0 0 340 340;" xml:space="preserve">
<style type="text/css">
	.st0{fill:#1DB954;}
	.st1{fill:#191414;}
</style>
<path class="st0" d="M2,171c0,92,76,168,168,168s168-76,168-168S262,4,170,4S2,79,2,171z M232,249c-39-24-89-30-147-17
	c-14,2-16-18-4-20c64-15,118-8,162,19C254,238,243,255,232,249z M249,204c-45-28-114-36-167-20c-17,5-23-21-7-25c61-18,136-9,188,23
	C277,191,263,213,249,204z M74,133c-17,6-28-23-9-30c59-18,159-15,221,22c17,9,1,37-17,27C215,120,125,117,74,133z"/>
<path class="st1" d="M232,249c-39-24-89-30-147-17c-14,2-16-18-4-20c64-15,118-8,162,19C254,238,243,255,232,249z"/>
<path class="st1" d="M249,204c-45-28-114-36-167-20c-17,5-23-21-7-25c61-18,136-9,188,23C277,191,263,213,249,204z"/>
<path class="st1" d="M74,133c-17,6-28-23-9-30c59-18,159-15,221,22c17,9,1,37-17,27C215,120,125,117,74,133z"/>
</svg>
